Coordinates
version=1
nRows=38
nColumns=12
inDegrees=yes

Units are S.I. units (second, meters, Newtons, ...)
Angles are in degrees

endheader
time	SC_y	SC_z	SC_x	AC_y	AC_z	AC_x	GH_y	GH_z	GH_yy	EL_x	PS_y
       0.0              -49.65           2.02          56.72          64.48          8.264         -18.08          58.08        -0.5543          127.2          33.13          144.4
   0.04746              -49.64          2.019          56.72          64.48          8.262         -18.08          58.06        -0.5495          127.1          33.14          144.4
   0.09491              -49.64          2.019          56.72          64.48           8.26         -18.08          58.04        -0.5444          127.1          33.15          144.4
    0.1424              -49.64          2.019          56.72          64.48          8.258         -18.08          58.02        -0.5391          127.1          33.17          144.4
    0.1898              -49.64          2.018          56.72          64.47          8.256         -18.08          57.99        -0.5333          127.1          33.18          144.4
    0.2373              -49.64          2.018          56.72          64.47          8.253         -18.08          57.97        -0.5272          127.1          33.19          144.4
    0.2847              -49.64          2.017          56.72          64.47           8.25         -18.08          57.94        -0.5207          127.1          33.21          144.4
    0.3322              -49.63          2.017          56.72          64.47          8.248         -18.08          57.91        -0.5137          127.1          33.23          144.3
    0.3796              -49.63          2.016          56.71          64.47          8.245         -18.07          57.88        -0.5063          127.1          33.24          144.3
    0.4271              -49.63          2.016          56.71          64.47          8.241         -18.07          57.84        -0.4982          127.0          33.26          144.3
    0.4746              -49.63          2.015          56.71          64.47          8.238         -18.07           57.8        -0.4896          127.0          33.28          144.3
     0.522              -49.62          2.014          56.71          64.47          8.234         -18.07          57.76        -0.4804          127.0          33.31          144.3
    0.5695              -49.62          2.014          56.71          64.47           8.23         -18.07          57.72        -0.4704          127.0          33.33          144.3
    0.6169              -49.62          2.013          56.71          64.46          8.226         -18.06          57.68        -0.4596          127.0          33.36          144.3
    0.6644              -49.61          2.012           56.7          64.46          8.221         -18.06          57.63        -0.4479          126.9          33.38          144.2
    0.7118              -49.61          2.011           56.7          64.46          8.216         -18.06          57.57        -0.4353          126.9          33.41          144.2
    0.7593               -49.6           2.01           56.7          64.46           8.21         -18.06          57.51        -0.4215          126.9          33.45          144.2
    0.8067               -49.6          2.009          56.69          64.46          8.204         -18.05          57.45        -0.4065          126.9          33.48          144.2
    0.8542              -49.59          2.008          56.69          64.45          8.197         -18.05          57.38        -0.3902          126.8          33.52          144.1
    0.9017              -49.59          2.006          56.69          64.45           8.19         -18.05           57.3        -0.3722          126.8          33.56          144.1
    0.9491              -49.58          2.005          56.68          64.45          8.182         -18.04          57.22        -0.3526          126.7          33.61          144.1
    0.9966              -49.57          2.003          56.68          64.45          8.173         -18.04          57.12        -0.3309          126.7          33.66          144.0
     1.044              -49.57          2.002          56.67          64.44          8.164         -18.03          57.02         -0.307          126.7          33.72          144.0
     1.091              -49.56            2.0          56.67          64.44          8.153         -18.03          56.91        -0.2805          126.6          33.78          144.0
     1.139              -49.55          1.997          56.66          64.44          8.141         -18.02          56.78         -0.251          126.5          33.85          143.9
     1.186              -49.54          1.995          56.65          64.43          8.127         -18.01          56.64        -0.2181          126.5          33.93          143.9
     1.234              -49.52          1.992          56.65          64.43          8.113         -18.01          56.48        -0.1813          126.4          34.01          143.8
     1.281              -49.51          1.989          56.64          64.42          8.096          -18.0          56.31        -0.1399          126.3          34.11          143.7
     1.329              -49.49          1.986          56.63          64.41          8.077         -17.99          56.11       -0.09309          126.2          34.22          143.6
     1.376              -49.48          1.982          56.62          64.41          8.055         -17.98          55.88       -0.03994          126.1          34.35          143.6
     1.424              -49.46          1.978           56.6           64.4           8.03         -17.96          55.62        0.02072          126.0          34.49          143.5
     1.471              -49.43          1.972          56.59          64.39          8.002         -17.95          55.32        0.09033          125.8          34.66          143.3
     1.519              -49.41          1.966          56.57          64.38          7.969         -17.93          54.98         0.1707          125.7          34.85          143.2
     1.566              -49.38           1.96          56.55          64.36          7.932         -17.91          54.58         0.2641          125.5          35.07          143.0
     1.613              -49.34          1.952          56.53          64.35          7.887         -17.89          54.11         0.3734          125.3          35.33          142.9
     1.661               -49.3          1.942           56.5          64.33          7.835         -17.86          53.56         0.5022          125.0          35.64          142.6
     1.708              -49.25          1.931          56.47          64.31          7.773         -17.83           52.9         0.6553          124.7           36.0          142.4
     1.756              -49.19          1.917          56.43          64.29          7.698         -17.79          52.11         0.8388          124.3          36.43          142.1
